<svg width="1088" height="400" viewBox="0 0 1088 400" fill="none" xmlns="http://www.w3.org/2000/svg">
<path d="M200.666 63.6997C202.113 63.9376 203.532 63.1569 204.102 61.8069C204.67 60.4566 204.248 58.8901 203.071 58.0195C200.122 55.8403 197.024 53.7977 193.774 51.9216C144.107 23.2463 80.5969 40.2638 51.9217 89.9309C23.2464 139.598 40.2639 203.108 89.9309 231.783C93.1808 233.66 96.4986 235.321 99.8609 236.786C101.203 237.37 102.775 236.958 103.654 235.788C104.539 234.62 104.507 232.997 103.578 231.863C76.9656 199.411 71.6646 152.657 93.89 114.161C116.115 75.6652 159.256 56.8793 200.666 63.6997Z" fill="#FF3737"/>
<path d="M205.57 204.579C205.234 204.512 170.78 195.848 144.05 190.476C142.774 190.005 139.617 188.461 139.416 187.252C139.281 186.11 139.147 184.7 139.08 183.021C138.677 177.245 138.072 169.253 133.774 161.73C128.536 152.664 123.969 150.783 121.013 150.783C119.2 150.783 118.126 151.455 118.058 151.455C117.991 151.522 117.991 151.656 117.991 151.723C117.991 151.858 118.126 151.925 118.193 151.925C118.26 151.925 122.222 152.126 126.118 156.693C132.632 164.484 133.774 178.521 133.573 188.931C133.573 190.408 137.334 194.304 137.737 194.707C137.804 194.774 137.804 194.774 137.871 194.774C146.803 195.983 159.228 197.93 171.25 199.878C183.809 201.893 196.839 203.975 205.502 205.05C205.637 205.05 205.704 204.982 205.771 204.848C205.771 204.714 205.704 204.647 205.57 204.579Z" fill="#323232"/>
<path d="M314.37 189.603C314.169 189.468 290.998 176.17 273.536 171.335C273.469 171.335 273.335 171.402 273.335 171.469C273.267 171.536 273.267 171.67 273.335 171.738L281.931 183.894C281.998 183.961 281.998 183.961 282.066 183.961L304.632 190.274H304.699L314.303 190.073C314.37 190.073 314.437 190.005 314.504 189.871C314.504 189.804 314.504 189.67 314.37 189.603Z" fill="#323232"/>
<path d="M296.841 195.378C296.774 195.311 296.64 195.244 296.573 195.244C295.767 195.513 288.849 197.528 288.043 198.333C287.304 199.072 281.797 210.087 281.193 211.296C281.126 211.363 281.126 211.43 281.193 211.497C281.193 211.564 281.26 211.631 281.327 211.631C281.461 211.699 290.73 213.848 296.505 214.318C298.52 214.519 300.804 214.586 303.289 214.586C311.818 214.586 323.37 213.646 337.608 211.9C352.652 210.019 364.003 205.587 364.07 205.52C364.204 205.453 364.271 205.385 364.204 205.251C364.204 205.117 364.07 205.05 363.935 205.117C363.801 205.117 350.906 207.669 336.601 209.482C332.638 210.019 326.527 210.288 319.407 210.288C311.885 210.288 304.095 209.952 299.528 209.482C294.088 208.945 291.468 207.535 290.931 207.132C291.939 201.02 296.774 195.714 296.774 195.647C296.841 195.58 296.908 195.446 296.841 195.378Z" fill="#323232"/>
<path d="M374.01 182.483C372.264 178.722 362.324 168.043 346.272 159.111C332.773 151.656 317.057 148.567 316.184 148.365C303.088 141.112 287.708 136.276 287.573 136.209C287.439 136.209 287.305 136.276 287.305 136.343C287.237 136.478 287.305 136.612 287.439 136.679C287.573 136.746 301.811 142.589 306.378 147.291C307.117 148.029 307.386 148.5 307.252 148.768C307.05 149.507 304.632 149.843 300.938 150.313C299.864 150.447 298.588 150.649 297.244 150.85C291.133 151.723 283.409 152.193 274.343 152.193C266.35 152.193 260.239 151.79 260.171 151.79C260.037 151.79 259.903 151.858 259.903 151.992C259.903 152.126 259.97 152.261 260.104 152.261C271.925 153.805 281.932 154.611 289.79 154.611C298.453 154.611 303.088 153.671 306.446 152.999C308.595 152.529 310.274 152.193 312.154 152.261C319.676 152.596 339.556 158.574 350.436 164.484C360.981 170.193 368.032 177.715 368.771 178.521C368.637 181.274 367.965 183.491 367.965 183.491C367.898 183.558 367.898 183.625 367.965 183.692C368.032 183.759 368.1 183.759 368.167 183.759C372.599 183.759 373.876 182.752 373.943 182.752C374.01 182.685 374.01 182.55 374.01 182.483Z" fill="#323232"/>
<path d="M262.321 162.805C262.388 162.805 262.522 162.805 262.522 162.738C262.59 162.604 262.59 162.47 262.522 162.402C262.388 162.335 255 155.754 243.717 152.194C240.762 151.254 237.135 150.716 233.106 150.716C224.106 150.716 215.644 153.201 215.577 153.201C215.442 153.201 215.375 153.336 215.442 153.47C215.442 153.604 215.577 153.672 215.711 153.672C215.711 153.672 221.823 152.933 228.673 152.933C235.792 152.933 241.031 153.873 244.523 155.149C253.12 158.44 262.119 162.738 262.254 162.805H262.321Z" fill="#323232"/>
<path d="M151.303 182.214L196.301 192.423C196.301 192.423 196.301 192.423 196.369 192.423C196.436 192.423 196.57 192.356 196.57 192.221C196.637 192.087 196.57 192.02 196.436 191.953C196.167 191.886 169.84 183.49 162.452 181.543C159.363 180.737 157.549 179.394 156.475 174.424C153.318 159.581 149.02 154.88 148.886 154.678C148.751 154.611 148.684 154.611 148.55 154.678C148.483 154.745 148.415 154.88 148.483 154.947C148.483 155.014 149.692 157.432 150.632 161.932C151.438 166.096 152.244 172.946 151.102 181.946C151.102 182.08 151.169 182.147 151.303 182.214Z" fill="#323232"/>
<path d="M216.785 149.037C221.218 149.037 224.441 148.97 224.441 148.97C224.576 148.97 224.643 148.903 224.643 148.836C224.71 148.768 224.71 148.634 224.643 148.567C224.576 148.5 219.874 143.261 217.456 140.843C210.405 133.791 202.345 130.366 192.741 130.366C186.294 130.366 180.115 131.911 173.869 133.59C163.862 136.276 155.668 139.769 150.832 141.784C150.631 141.851 150.497 141.985 150.497 142.187C150.362 142.858 151.974 144.336 152.444 144.739H152.512C159.563 146.955 187.973 150.246 188.241 150.313C188.241 150.313 188.241 150.313 188.308 150.313C188.443 150.313 188.51 150.179 188.51 150.112C188.51 149.977 188.443 149.843 188.308 149.843L157.414 143.597C158.959 142.657 164.13 139.769 172.593 136.948C179.578 134.53 186.898 133.254 193.278 133.254C199.726 133.254 205.032 134.53 208.86 137.149C215.374 141.448 217.188 145.276 217.524 146.283C217.121 146.351 216.248 146.552 215.173 146.552C213.225 146.552 210.606 145.948 209.263 143.127C208.793 142.119 207.449 141.649 205.166 141.649C202.48 141.649 198.718 142.254 193.883 143.261C191.062 143.798 190.995 147.425 190.995 147.492C190.995 147.559 191.062 147.694 191.129 147.694C195.092 148.768 207.248 149.037 216.785 149.037Z" fill="#323232"/>
<path d="M165.339 131.172C165.541 131.105 180.854 127.344 194.555 127.344C198.584 127.344 202.144 127.679 205.099 128.284C216.181 130.769 229.881 144.335 233.374 148.768C233.441 148.835 233.508 148.835 233.575 148.835C233.71 148.835 233.777 148.768 233.777 148.634C233.777 148.566 233.777 148.499 233.71 148.499C233.307 147.693 226.456 136.007 212.151 127.746C214.3 127.679 220.882 127.344 229.814 127.344C242.038 127.344 253.589 127.881 264.268 129.023C264.402 129.023 264.537 128.955 264.537 128.821C264.537 128.687 264.469 128.62 264.335 128.62C263.999 128.485 259.5 127.209 251.977 125.933C244.791 124.791 233.239 123.314 219.203 123.314C216.919 123.314 214.569 123.381 212.218 123.448C182.936 124.388 165.407 130.634 165.205 130.702C165.138 130.769 165.071 130.903 165.071 131.037C165.138 131.105 165.272 131.172 165.339 131.172Z" fill="#323232"/>
<path d="M161.645 131.71C161.578 131.575 161.511 131.508 161.376 131.508C131.893 134.665 120.609 138.224 120.542 138.291C120.408 138.359 120.341 138.426 120.341 138.56C120.408 138.694 120.475 138.761 120.609 138.761C122.221 138.493 123.833 138.426 125.378 138.426C136.594 138.426 142.37 144.336 142.437 144.403C142.437 144.403 142.504 144.47 142.571 144.47C142.706 144.47 142.84 144.336 142.84 144.202C142.84 144.202 142.84 144.134 142.773 144.134C142.571 142.59 140.959 139.836 140.489 139.03C148.884 135.538 161.309 131.978 161.444 131.978C161.578 131.911 161.645 131.844 161.645 131.71Z" fill="#323232"/>
<path d="M117.521 139.299C117.386 139.232 117.252 139.232 117.185 139.299C110.872 144.873 110.133 154.141 110.133 154.276C110.133 154.343 110.133 154.41 110.267 154.477H110.334C110.401 154.477 110.469 154.477 110.536 154.41C110.536 154.41 112.08 152.933 113.558 151.925C114.767 151.052 116.043 150.448 116.11 150.448C116.177 150.38 116.244 150.246 116.177 150.179C114.162 144.873 117.521 139.635 117.521 139.567C117.588 139.5 117.588 139.366 117.521 139.299Z" fill="#323232"/>
<path d="M130.281 196.923C130.281 196.923 129.878 196.99 129.207 196.99C129.14 196.99 129.005 196.99 128.871 196.99C128.065 196.99 127.326 196.856 126.52 196.721C125.983 196.587 125.446 196.453 124.841 196.184C117.521 193.833 110.402 185.505 112.148 172.61C113.827 159.782 120.274 158.842 122.222 158.842C122.491 158.842 122.625 158.842 122.625 158.842H122.692C122.759 158.842 122.894 158.708 122.894 158.574C122.894 158.506 122.827 158.439 122.759 158.372C122.625 158.305 122.289 158.171 121.886 158.036C121.55 157.902 121.215 157.768 120.745 157.7C119.939 157.566 119.066 157.499 118.26 157.566C117.454 157.7 116.245 157.969 115.036 158.708C113.894 159.38 112.887 160.387 112.148 161.596C112.148 161.663 112.148 161.663 112.081 161.663C112.215 161.327 112.282 160.991 112.349 160.656C112.417 160.454 112.484 160.32 112.551 160.118C112.551 159.984 112.618 159.85 112.685 159.715C112.752 159.245 112.954 158.842 113.088 158.506C113.155 158.305 113.29 158.103 113.29 157.969C113.827 156.827 114.364 155.954 114.902 155.35C115.036 155.148 115.237 154.947 115.372 154.745C115.506 154.678 115.573 154.544 115.64 154.477C115.707 154.41 115.775 154.342 115.842 154.275C115.842 154.275 115.909 154.208 115.976 154.141C116.043 154.074 116.178 153.939 116.245 153.872C116.312 153.805 116.446 153.738 116.446 153.671L116.648 153.536C116.715 153.469 116.782 153.469 116.782 153.469C116.916 153.402 116.916 153.268 116.916 153.201C116.849 153.066 116.782 152.999 116.648 152.999C116.648 152.999 116.581 152.999 116.446 153.066C116.379 153.066 116.312 153.066 116.178 153.134C116.11 153.134 115.976 153.201 115.909 153.201C115.64 153.268 115.372 153.402 115.103 153.536L114.969 153.604C114.902 153.671 114.834 153.671 114.767 153.738C114.499 153.872 114.163 154.007 113.894 154.275C113.021 154.745 112.148 155.551 111.208 156.626L111.073 156.827C110.67 157.298 110.335 157.835 109.932 158.439C109.932 158.506 109.864 158.574 109.797 158.641C109.663 158.909 109.529 159.178 109.327 159.447C109.193 159.782 108.991 160.185 108.79 160.521L108.521 161.126C108.521 161.26 108.454 161.394 108.387 161.462C108.387 161.596 108.32 161.663 108.32 161.73L107.782 163.342L107.178 165.693C107.044 166.297 106.909 166.902 106.842 167.573C106.775 167.909 106.708 168.245 106.708 168.581C106.641 169.252 106.574 169.991 106.506 170.73C106.506 170.998 106.506 171.267 106.439 171.603C106.439 173.483 106.439 175.7 106.708 177.849L106.842 178.722C106.842 178.923 106.909 179.058 106.909 179.259C106.909 179.326 106.976 179.461 106.976 179.528L107.044 179.797C107.111 180.2 107.178 180.737 107.312 181.14C107.514 182.214 107.85 183.289 108.185 184.431C108.454 185.169 108.723 185.908 109.058 186.647C109.864 188.528 114.499 197.93 125.58 197.93C127.058 197.93 128.737 197.729 130.349 197.393C130.483 197.326 130.55 197.191 130.55 197.124C130.483 196.99 130.416 196.856 130.281 196.923Z" fill="#323232"/>
<path d="M240.426 219.086C240.157 219.086 239.15 219.221 237.74 219.221C233.844 219.221 226.591 218.28 221.285 211.833C221.218 211.766 221.218 211.766 221.218 211.766C219.875 210.423 217.39 206.527 215.979 201.356C214.77 196.856 213.965 189.871 217.255 182.416C219.069 178.252 221.554 175.23 224.71 173.35C225.516 172.812 226.389 172.409 227.262 172.073C228.27 171.671 229.412 171.402 230.621 171.268C231.494 171.2 232.434 171.2 233.374 171.268C234.18 171.335 234.852 171.402 235.188 171.469C235.255 171.469 235.389 171.536 235.456 171.536C235.725 171.603 235.859 171.603 235.859 171.603C235.859 171.603 235.859 171.603 235.926 171.603C236.061 171.603 236.128 171.536 236.128 171.402C236.128 171.268 236.061 171.2 235.993 171.2C235.926 171.133 235.792 170.999 235.456 170.797C234.919 170.462 234.314 170.193 233.71 169.924C232.703 169.521 231.695 169.253 230.688 169.118C229.277 168.917 227.867 168.917 226.524 169.118C225.785 169.253 224.979 169.454 224.106 169.723C223.367 169.991 222.561 170.327 221.755 170.797C221.016 171.268 220.211 171.738 219.472 172.342C218.733 172.947 218.061 173.618 217.39 174.357C216.92 174.827 216.517 175.364 216.047 175.902C216.181 175.7 216.248 175.432 216.382 175.23C217.121 173.618 218.061 172.006 219.136 170.596C220.076 169.454 221.016 168.38 222.158 167.439C222.897 166.768 223.636 166.163 224.375 165.693C224.912 165.29 225.248 165.156 225.248 165.156C225.382 165.089 225.382 164.954 225.382 164.887C225.315 164.753 225.248 164.686 225.113 164.686C225.113 164.686 224.71 164.753 224.039 164.887C223.098 165.156 222.158 165.492 221.151 165.962C219.74 166.566 218.397 167.439 217.054 168.447C215.442 169.79 213.965 171.335 212.688 173.148C211.345 175.096 210.136 177.446 209.33 179.931C208.457 182.483 207.92 185.304 207.651 188.192C207.517 189.737 207.45 191.214 207.517 192.625V193.095C207.517 193.229 207.517 193.364 207.517 193.498C207.517 193.565 207.517 193.632 207.584 193.699L207.651 194.841C207.651 195.244 207.651 195.58 207.719 195.916L207.786 196.587L207.853 197.125C207.987 198.132 208.189 199.207 208.457 200.348C209.263 203.639 214.368 220.094 233.844 220.094C235.993 220.094 238.21 219.892 240.493 219.556C240.628 219.489 240.695 219.422 240.695 219.288C240.628 219.154 240.56 219.086 240.426 219.086Z" fill="#323232"/>
<path d="M367.092 208.273C338.75 217.877 307.386 218.347 301.342 218.347C299.73 218.347 298.319 218.347 297.513 218.28C282.133 217.206 267.358 213.646 265.545 213.176C266.082 207.803 265.343 204.042 264.94 201.96C264.873 201.557 264.806 201.154 264.739 200.885C264.537 199.139 260.709 192.289 260.575 191.953C260.508 191.886 260.44 191.819 260.306 191.886C260.172 191.886 260.105 192.02 260.172 192.154C261.649 202.027 260.843 209.415 260.172 212.168L253.724 210.758C253.657 210.489 253.657 209.952 253.657 209.348C253.59 208.475 253.523 207.534 253.523 206.594L253.321 204.109L253.12 202.229L252.918 200.415L252.717 198.803L252.448 197.124C252.18 195.781 251.978 194.774 251.777 193.833C251.508 192.759 251.172 191.617 250.836 190.744C250.5 189.602 250.165 188.662 249.829 187.923C249.426 187.05 249.09 186.177 248.687 185.438C248.284 184.699 247.948 184.028 247.613 183.423C247.277 182.819 246.941 182.282 246.739 181.946C246.471 181.61 246.269 181.274 246.135 181.073L245.866 180.737C245.799 180.603 245.665 180.603 245.598 180.67C245.463 180.737 245.463 180.804 245.463 180.938L245.665 181.274C245.732 181.543 245.866 181.879 246.068 182.282C246.269 182.886 246.471 183.356 246.672 183.894C246.874 184.498 247.075 185.17 247.277 185.976C247.478 186.714 247.747 187.587 247.881 188.46C248.083 189.266 248.217 190.14 248.351 191.281C248.486 192.222 248.62 193.229 248.62 194.304C248.687 195.445 248.687 196.52 248.687 197.46V199.072L248.62 200.617L248.486 202.161L248.418 203.639L248.284 205.116L248.083 206.527C248.016 207.4 247.881 208.206 247.814 209.079C247.68 209.616 247.613 210.221 247.545 210.691C247.545 210.892 246.941 215.191 249.09 215.526C256.008 216.735 286.499 221.437 296.573 221.705C297.379 221.705 298.185 221.705 298.991 221.705C308.259 221.705 317.46 220.496 328.34 218.75C347.347 215.661 362.123 210.825 367.294 208.676C367.361 208.676 367.428 208.542 367.361 208.407C367.361 208.273 367.227 208.206 367.092 208.273Z" fill="#323232"/>
<path d="M213.362 307.353C211.259 307.007 209.197 308.142 208.37 310.104C207.544 312.066 208.157 314.343 209.867 315.608C214.153 318.775 218.656 321.744 223.379 324.471C295.563 366.146 387.865 341.414 429.54 269.23C471.215 197.047 446.483 104.744 374.299 63.0693C369.576 60.3424 364.754 57.9272 359.868 55.7981C357.917 54.9495 355.632 55.5487 354.355 57.2494C353.069 58.9469 353.115 61.3052 354.466 62.9529C393.142 110.118 400.847 178.068 368.545 234.015C336.244 289.963 273.546 317.266 213.362 307.353Z" fill="#565656"/>
<path d="M554.184 215V148.312L528.84 184.92H520.136L494.92 148.312V215H483.4V129.88H496.072L524.488 170.968L552.904 129.88H565.704V215H554.184ZM618.973 214.872H606.045L576.605 129.752H588.765L612.573 198.232L636.381 129.752H648.413L618.973 214.872ZM719.844 206.808C717.881 208.259 715.919 209.496 713.956 210.52C707.727 213.848 701.113 215.512 694.116 215.512C689.764 215.512 685.583 214.872 681.572 213.592C676.281 212.056 671.46 209.496 667.108 205.912C662.756 202.328 659.215 197.976 656.484 192.856C653.241 186.968 651.62 180.44 651.62 173.272C651.62 171.053 651.705 169.347 651.876 168.152C652.388 163.459 653.583 159.021 655.46 154.84C657.423 150.573 659.94 146.819 663.012 143.576C666.084 140.333 669.583 137.603 673.508 135.384C677.519 133.165 681.785 131.629 686.308 130.776C688.868 130.264 691.513 130.008 694.244 130.008C701.327 130.008 708.068 131.8 714.468 135.384C719.247 138.2 723.556 141.827 727.396 146.264L718.564 153.688C714.383 149.08 709.988 145.795 705.38 143.832C701.54 142.381 697.657 141.656 693.732 141.656C688.697 141.656 683.919 142.851 679.396 145.24C673.764 148.227 669.412 152.835 666.34 159.064C664.121 163.331 663.012 167.896 663.012 172.76C663.012 175.491 663.396 178.221 664.164 180.952C665.785 187.608 669.455 193.112 675.172 197.464C677.817 199.512 680.761 201.091 684.004 202.2C687.247 203.309 690.575 203.864 693.988 203.864C698.511 203.864 702.735 202.968 706.66 201.176C710.671 199.299 714.212 196.696 717.284 193.368V184.792H705.508V173.272H728.676V197.592C726.031 201.347 723.087 204.419 719.844 206.808Z" fill="#FF3737"/>
<path d="M484.04 310V237.936H489.928L519.624 308.08H519.88L549.32 237.936H555.208V310H551.88V240.496H551.624L522.312 310H516.936L487.624 240.496H487.368V310H484.04ZM588.347 311.28C583.056 311.28 578.875 310.171 575.803 307.952C572.816 305.648 570.726 302.576 569.531 298.736C568.336 294.811 567.739 290.373 567.739 285.424V258.288H571.195V285.424C571.195 289.691 571.664 293.531 572.603 296.944C573.542 300.357 575.248 303.045 577.723 305.008C580.198 306.971 583.739 307.952 588.347 307.952C592.699 307.952 596.198 306.928 598.843 304.88C601.574 302.832 603.622 300.187 604.987 296.944C606.352 293.616 607.163 290.117 607.419 286.448L607.547 258.288H610.875V310H608.187L607.547 296.816H607.291C606.608 298.949 605.456 301.125 603.835 303.344C602.214 305.563 600.123 307.44 597.563 308.976C595.003 310.512 591.931 311.28 588.347 311.28ZM624.915 310V237.936H628.371V310H624.915ZM649.327 310C647.194 310 645.914 309.317 645.487 307.952C645.146 306.587 644.975 305.264 644.975 303.984V261.488H636.271V258.288C638.66 258.288 640.452 258.203 641.647 258.032C642.927 257.861 643.78 257.392 644.207 256.624C644.634 255.856 644.847 254.533 644.847 252.656C644.932 250.779 644.975 248.176 644.975 244.848H648.431V258.288H660.591V261.488H648.431V306.8H660.591V310H649.327ZM676.472 252.912C675.448 252.912 674.765 252.613 674.424 252.016C674.083 251.333 673.912 250.523 673.912 249.584C673.912 248.731 674.083 248.005 674.424 247.408C674.765 246.811 675.448 246.512 676.472 246.512C677.496 246.512 678.179 246.811 678.52 247.408C678.861 248.005 679.032 248.731 679.032 249.584C679.032 250.523 678.861 251.333 678.52 252.016C678.179 252.613 677.496 252.912 676.472 252.912ZM674.68 310V258.288H678.008V310H674.68ZM690.87 310V258.288H693.558L694.198 272.88H694.454C694.71 271.941 695.179 270.704 695.862 269.168C696.545 267.547 697.526 265.925 698.806 264.304C700.171 262.597 701.921 261.189 704.054 260.08C706.187 258.885 708.918 258.288 712.246 258.288C715.83 258.288 718.689 259.013 720.822 260.464C723.041 261.829 724.747 263.664 725.942 265.968C727.137 268.187 727.99 270.491 728.502 272.88H728.758C729.014 271.941 729.526 270.704 730.294 269.168C731.062 267.547 732.129 265.925 733.494 264.304C734.945 262.597 736.779 261.189 738.998 260.08C741.302 258.885 744.118 258.288 747.446 258.288C750.859 258.288 753.633 258.971 755.766 260.336C757.985 261.616 759.691 263.323 760.886 265.456C762.081 267.504 762.934 269.723 763.446 272.112C763.958 274.416 764.257 276.677 764.342 278.896C764.513 281.029 764.598 282.779 764.598 284.144V310H761.27V284.144C761.27 282.608 761.185 280.603 761.014 278.128C760.843 275.653 760.331 273.179 759.478 270.704C758.625 268.144 757.217 266.011 755.254 264.304C753.291 262.512 750.518 261.616 746.934 261.616C743.094 261.616 739.851 262.725 737.206 264.944C734.646 267.077 732.683 269.979 731.318 273.648C730.038 277.232 729.398 281.243 729.398 285.68V310H726.07V284.144C726.07 282.608 725.985 280.603 725.814 278.128C725.643 275.653 725.131 273.179 724.278 270.704C723.425 268.144 722.017 266.011 720.054 264.304C718.091 262.512 715.318 261.616 711.734 261.616C707.894 261.616 704.651 262.725 702.006 264.944C699.446 267.077 697.483 269.979 696.118 273.648C694.838 277.232 694.198 281.243 694.198 285.68V310H690.87ZM794.055 311.152C789.276 311.152 785.266 309.957 782.023 307.568C778.78 305.093 776.348 301.851 774.727 297.84C773.106 293.744 772.295 289.264 772.295 284.4C772.295 279.28 773.148 274.715 774.855 270.704C776.562 266.693 779.036 263.536 782.279 261.232C785.522 258.843 789.447 257.648 794.055 257.648C798.663 257.648 802.546 258.8 805.703 261.104C808.86 263.323 811.25 266.309 812.871 270.064H812.999V258.288H816.455V310H813.767L813.127 298.48H812.871C811.25 302.235 808.86 305.307 805.703 307.696C802.546 310 798.663 311.152 794.055 311.152ZM795.079 307.568C800.882 307.568 805.276 305.563 808.263 301.552C811.335 297.541 812.871 291.867 812.871 284.528C812.871 276.677 811.25 270.832 808.007 266.992C804.85 263.152 800.54 261.232 795.079 261.232C788.764 261.232 783.986 263.408 780.743 267.76C777.586 272.112 776.007 277.659 776.007 284.4C776.007 291.397 777.628 297.029 780.871 301.296C784.199 305.477 788.935 307.568 795.079 307.568ZM828.665 310V258.288H831.353L831.993 270.96C832.932 267.12 835.022 264.048 838.265 261.744C841.508 259.355 845.817 258.203 851.193 258.288H854.393V262.128H851.193C845.646 262.128 841.508 263.024 838.777 264.816C836.132 266.523 834.34 268.827 833.401 271.728C832.548 274.544 832.078 277.659 831.993 281.072V284.144V310H828.665ZM881.895 311.28C874.642 311.28 868.754 308.976 864.231 304.368C859.794 299.675 857.575 293.36 857.575 285.424C857.746 280.133 858.855 275.44 860.903 271.344C862.951 267.248 865.81 264.048 869.479 261.744C873.148 259.44 877.415 258.288 882.279 258.288C888.082 258.288 893.031 259.867 897.127 263.024C901.223 266.181 903.826 270.363 904.935 275.568H901.607C900.668 271.301 898.45 267.931 894.951 265.456C891.452 262.981 887.228 261.744 882.279 261.744C878.098 261.744 874.428 262.768 871.271 264.816C868.114 266.779 865.639 269.552 863.847 273.136C862.055 276.72 861.116 280.859 861.031 285.552C861.031 292.293 862.908 297.712 866.663 301.808C870.503 305.819 875.58 307.824 881.895 307.824C886.93 307.824 891.239 306.587 894.823 304.112C898.407 301.637 900.668 298.267 901.607 294H904.935C903.826 299.205 901.138 303.387 896.871 306.544C892.69 309.701 887.698 311.28 881.895 311.28ZM933.68 311.152C928.901 311.152 924.891 309.957 921.648 307.568C918.405 305.093 915.973 301.851 914.352 297.84C912.731 293.744 911.92 289.264 911.92 284.4C911.92 279.28 912.773 274.715 914.48 270.704C916.187 266.693 918.661 263.536 921.904 261.232C925.147 258.843 929.072 257.648 933.68 257.648C938.288 257.648 942.171 258.8 945.328 261.104C948.485 263.323 950.875 266.309 952.496 270.064H952.624V258.288H956.08V310H953.392L952.752 298.48H952.496C950.875 302.235 948.485 305.307 945.328 307.696C942.171 310 938.288 311.152 933.68 311.152ZM934.704 307.568C940.507 307.568 944.901 305.563 947.888 301.552C950.96 297.541 952.496 291.867 952.496 284.528C952.496 276.677 950.875 270.832 947.632 266.992C944.475 263.152 940.165 261.232 934.704 261.232C928.389 261.232 923.611 263.408 920.368 267.76C917.211 272.112 915.632 277.659 915.632 284.4C915.632 291.397 917.253 297.029 920.496 301.296C923.824 305.477 928.56 307.568 934.704 307.568ZM985.442 311.28C981.346 311.28 978.018 310.725 975.458 309.616C972.898 308.421 970.935 306.971 969.57 305.264C968.205 303.557 967.223 301.893 966.626 300.272C966.114 298.565 965.815 297.157 965.73 296.048C965.645 294.853 965.602 294.256 965.602 294.256H969.186C969.186 294.341 969.271 295.109 969.442 296.56C969.613 298.011 970.167 299.675 971.106 301.552C972.045 303.344 973.623 304.923 975.842 306.288C978.146 307.653 981.389 308.336 985.57 308.336C988.471 308.336 991.287 307.995 994.018 307.312C996.749 306.629 999.01 305.52 1000.8 303.984C1002.59 302.363 1003.45 300.229 1003.36 297.584C1003.36 294.512 1002.47 292.165 1000.67 290.544C998.882 288.923 996.578 287.728 993.762 286.96C990.946 286.192 988.002 285.509 984.93 284.912C981.858 284.315 978.914 283.547 976.098 282.608C973.367 281.669 971.149 280.261 969.442 278.384C967.735 276.421 966.925 273.691 967.01 270.192C967.095 266.437 968.973 263.323 972.642 260.848C976.311 258.288 981.09 257.008 986.978 257.008C988.855 257.008 990.946 257.221 993.25 257.648C995.554 258.075 997.73 258.885 999.778 260.08C1001.91 261.189 1003.62 262.853 1004.9 265.072C1006.18 267.205 1006.69 270.064 1006.43 273.648H1002.85C1003.02 270.747 1002.55 268.443 1001.44 266.736C1000.33 264.944 998.882 263.579 997.09 262.64C995.298 261.701 993.421 261.104 991.458 260.848C989.495 260.507 987.746 260.336 986.21 260.336C981.943 260.336 978.231 261.147 975.074 262.768C971.917 264.389 970.338 266.864 970.338 270.192C970.338 272.923 971.191 275.013 972.898 276.464C974.69 277.915 976.951 279.024 979.682 279.792C982.498 280.475 985.442 281.115 988.514 281.712C991.586 282.309 994.487 283.163 997.218 284.272C1000.03 285.296 1002.3 286.832 1004 288.88C1005.79 290.928 1006.69 293.829 1006.69 297.584C1006.69 300.912 1005.71 303.6 1003.75 305.648C1001.78 307.611 999.181 309.061 995.938 310C992.695 310.853 989.197 311.28 985.442 311.28Z" fill="#808080"/>
</svg>
